<mxfile host="app.diagrams.net" agent="Mozilla/5.0 (Windows NT 10.0; Win64; x64) AppleWebKit/537.36 (KHTML, like Gecko) Chrome/134.0.0.0 Safari/537.36" version="26.1.0">
  <diagram name="Page-1" id="WHwx8xq6lvJohjHt7jeO">
    <mxGraphModel dx="3160" dy="2329" grid="1" gridSize="10" guides="1" tooltips="1" connect="1" arrows="1" fold="1" page="1" pageScale="1" pageWidth="827" pageHeight="1169" math="0" shadow="0">
      <root>
        <mxCell id="0" />
        <mxCell id="1" parent="0" />
        <mxCell id="4hZsw9sIfmTog-wG2VWx-1" value="UsersService" style="whiteSpace=wrap;html=1;aspect=fixed;fillColor=#dae8fc;strokeColor=#6c8ebf;" parent="1" vertex="1">
          <mxGeometry x="-180" y="660" width="120" height="120" as="geometry" />
        </mxCell>
        <mxCell id="4hZsw9sIfmTog-wG2VWx-2" value="TrainingsService" style="rounded=0;whiteSpace=wrap;html=1;fillColor=#dae8fc;strokeColor=#6c8ebf;" parent="1" vertex="1">
          <mxGeometry x="340" y="-310" width="130" height="110" as="geometry" />
        </mxCell>
        <mxCell id="4hZsw9sIfmTog-wG2VWx-3" value="CompetitionsService" style="whiteSpace=wrap;html=1;aspect=fixed;fillColor=#dae8fc;strokeColor=#6c8ebf;" parent="1" vertex="1">
          <mxGeometry x="-185" y="170" width="130" height="130" as="geometry" />
        </mxCell>
        <mxCell id="4hZsw9sIfmTog-wG2VWx-4" value="CompetitionsCell" style="shape=cylinder3;whiteSpace=wrap;html=1;boundedLbl=1;backgroundOutline=1;size=15;" parent="1" vertex="1">
          <mxGeometry x="-260" y="220" width="60" height="80" as="geometry" />
        </mxCell>
        <mxCell id="4hZsw9sIfmTog-wG2VWx-5" value="PaymentsService" style="whiteSpace=wrap;html=1;aspect=fixed;fillColor=#dae8fc;strokeColor=#6c8ebf;" parent="1" vertex="1">
          <mxGeometry x="-190" y="-200" width="100" height="100" as="geometry" />
        </mxCell>
        <mxCell id="4hZsw9sIfmTog-wG2VWx-6" value="MediaService" style="whiteSpace=wrap;html=1;aspect=fixed;fillColor=#dae8fc;strokeColor=#6c8ebf;" parent="1" vertex="1">
          <mxGeometry x="-170" y="460" width="100" height="100" as="geometry" />
        </mxCell>
        <mxCell id="4hZsw9sIfmTog-wG2VWx-7" value="UsersCell" style="shape=cylinder3;whiteSpace=wrap;html=1;boundedLbl=1;backgroundOutline=1;size=15;" parent="1" vertex="1">
          <mxGeometry x="-160" y="810" width="60" height="80" as="geometry" />
        </mxCell>
        <mxCell id="4hZsw9sIfmTog-wG2VWx-8" value="TrainingsCell" style="shape=cylinder3;whiteSpace=wrap;html=1;boundedLbl=1;backgroundOutline=1;size=15;" parent="1" vertex="1">
          <mxGeometry x="490" y="-300" width="60" height="80" as="geometry" />
        </mxCell>
        <mxCell id="4hZsw9sIfmTog-wG2VWx-9" value="PaymentsCell&lt;div&gt;&lt;br&gt;&lt;/div&gt;&lt;div&gt;&lt;br&gt;&lt;/div&gt;" style="shape=cylinder3;whiteSpace=wrap;html=1;boundedLbl=1;backgroundOutline=1;size=15;" parent="1" vertex="1">
          <mxGeometry x="-180" y="-290" width="60" height="80" as="geometry" />
        </mxCell>
        <mxCell id="4hZsw9sIfmTog-wG2VWx-10" value="NotificationsService" style="whiteSpace=wrap;html=1;aspect=fixed;fillColor=#dae8fc;strokeColor=#6c8ebf;" parent="1" vertex="1">
          <mxGeometry x="360" y="200" width="120" height="120" as="geometry" />
        </mxCell>
        <mxCell id="4hZsw9sIfmTog-wG2VWx-12" value="MediaCell&lt;div&gt;&lt;br&gt;&lt;/div&gt;" style="shape=cylinder3;whiteSpace=wrap;html=1;boundedLbl=1;backgroundOutline=1;size=15;" parent="1" vertex="1">
          <mxGeometry x="-55" y="470" width="70" height="80" as="geometry" />
        </mxCell>
        <mxCell id="4hZsw9sIfmTog-wG2VWx-13" value="API Gateway" style="ellipse;whiteSpace=wrap;html=1;fillColor=#d5e8d4;strokeColor=#82b366;" parent="1" vertex="1">
          <mxGeometry x="-620" y="220" width="120" height="80" as="geometry" />
        </mxCell>
        <mxCell id="XBZ-wuPjCvW4bJQK52kV-2" value="RabbitMqQueue" style="whiteSpace=wrap;html=1;aspect=fixed;fillColor=#ffe6cc;strokeColor=#d79b00;" vertex="1" parent="1">
          <mxGeometry x="100" y="190" width="90" height="90" as="geometry" />
        </mxCell>
        <mxCell id="XBZ-wuPjCvW4bJQK52kV-3" value="" style="endArrow=classic;html=1;rounded=0;" edge="1" parent="1" source="4hZsw9sIfmTog-wG2VWx-3" target="XBZ-wuPjCvW4bJQK52kV-2">
          <mxGeometry relative="1" as="geometry">
            <mxPoint x="290" y="170" as="sourcePoint" />
            <mxPoint x="450" y="170" as="targetPoint" />
          </mxGeometry>
        </mxCell>
        <mxCell id="XBZ-wuPjCvW4bJQK52kV-4" value="Publish event" style="edgeLabel;resizable=0;html=1;;align=center;verticalAlign=middle;" connectable="0" vertex="1" parent="XBZ-wuPjCvW4bJQK52kV-3">
          <mxGeometry relative="1" as="geometry" />
        </mxCell>
        <mxCell id="XBZ-wuPjCvW4bJQK52kV-10" value="" style="endArrow=classic;html=1;rounded=0;entryX=0.025;entryY=0.339;entryDx=0;entryDy=0;entryPerimeter=0;" edge="1" parent="1" source="XBZ-wuPjCvW4bJQK52kV-2" target="4hZsw9sIfmTog-wG2VWx-10">
          <mxGeometry relative="1" as="geometry">
            <mxPoint x="200" y="170" as="sourcePoint" />
            <mxPoint x="300" y="170" as="targetPoint" />
          </mxGeometry>
        </mxCell>
        <mxCell id="XBZ-wuPjCvW4bJQK52kV-11" value="Consume event" style="edgeLabel;resizable=0;html=1;;align=center;verticalAlign=middle;" connectable="0" vertex="1" parent="XBZ-wuPjCvW4bJQK52kV-10">
          <mxGeometry relative="1" as="geometry" />
        </mxCell>
        <mxCell id="XBZ-wuPjCvW4bJQK52kV-14" value="RabbitMqQueue" style="whiteSpace=wrap;html=1;aspect=fixed;fillColor=#ffe6cc;strokeColor=#d79b00;" vertex="1" parent="1">
          <mxGeometry x="364" y="-30" width="100" height="100" as="geometry" />
        </mxCell>
        <mxCell id="XBZ-wuPjCvW4bJQK52kV-15" value="" style="endArrow=classic;html=1;rounded=0;entryX=0.5;entryY=0;entryDx=0;entryDy=0;" edge="1" parent="1" source="4hZsw9sIfmTog-wG2VWx-2" target="XBZ-wuPjCvW4bJQK52kV-14">
          <mxGeometry relative="1" as="geometry">
            <mxPoint x="100" y="100" as="sourcePoint" />
            <mxPoint x="200" y="100" as="targetPoint" />
          </mxGeometry>
        </mxCell>
        <mxCell id="XBZ-wuPjCvW4bJQK52kV-16" value="Publish event" style="edgeLabel;resizable=0;html=1;;align=center;verticalAlign=middle;" connectable="0" vertex="1" parent="XBZ-wuPjCvW4bJQK52kV-15">
          <mxGeometry relative="1" as="geometry" />
        </mxCell>
        <mxCell id="XBZ-wuPjCvW4bJQK52kV-17" value="" style="endArrow=classic;html=1;rounded=0;" edge="1" parent="1" source="XBZ-wuPjCvW4bJQK52kV-14" target="4hZsw9sIfmTog-wG2VWx-10">
          <mxGeometry relative="1" as="geometry">
            <mxPoint x="300" y="130" as="sourcePoint" />
            <mxPoint x="400" y="130" as="targetPoint" />
          </mxGeometry>
        </mxCell>
        <mxCell id="XBZ-wuPjCvW4bJQK52kV-18" value="Consume event" style="edgeLabel;resizable=0;html=1;;align=center;verticalAlign=middle;" connectable="0" vertex="1" parent="XBZ-wuPjCvW4bJQK52kV-17">
          <mxGeometry relative="1" as="geometry" />
        </mxCell>
        <mxCell id="XBZ-wuPjCvW4bJQK52kV-19" value="" style="endArrow=classic;html=1;rounded=0;exitX=0.5;exitY=1;exitDx=0;exitDy=0;entryX=0.5;entryY=0;entryDx=0;entryDy=0;" edge="1" parent="1" source="4hZsw9sIfmTog-wG2VWx-3" target="4hZsw9sIfmTog-wG2VWx-6">
          <mxGeometry relative="1" as="geometry">
            <mxPoint x="-60" y="420" as="sourcePoint" />
            <mxPoint x="40" y="420" as="targetPoint" />
          </mxGeometry>
        </mxCell>
        <mxCell id="XBZ-wuPjCvW4bJQK52kV-20" value="API get" style="edgeLabel;resizable=0;html=1;;align=center;verticalAlign=middle;" connectable="0" vertex="1" parent="XBZ-wuPjCvW4bJQK52kV-19">
          <mxGeometry relative="1" as="geometry" />
        </mxCell>
        <mxCell id="XBZ-wuPjCvW4bJQK52kV-21" value="" style="endArrow=classic;html=1;rounded=0;" edge="1" parent="1" source="4hZsw9sIfmTog-wG2VWx-1" target="4hZsw9sIfmTog-wG2VWx-6">
          <mxGeometry relative="1" as="geometry">
            <mxPoint x="-110" y="650" as="sourcePoint" />
            <mxPoint x="-210" y="440" as="targetPoint" />
          </mxGeometry>
        </mxCell>
        <mxCell id="XBZ-wuPjCvW4bJQK52kV-22" value="API get" style="edgeLabel;resizable=0;html=1;;align=center;verticalAlign=middle;" connectable="0" vertex="1" parent="XBZ-wuPjCvW4bJQK52kV-21">
          <mxGeometry relative="1" as="geometry" />
        </mxCell>
        <mxCell id="XBZ-wuPjCvW4bJQK52kV-23" value="RabbitMqQueue" style="whiteSpace=wrap;html=1;aspect=fixed;fillColor=#ffe6cc;strokeColor=#d79b00;" vertex="1" parent="1">
          <mxGeometry x="-180" y="-20" width="90" height="90" as="geometry" />
        </mxCell>
        <mxCell id="XBZ-wuPjCvW4bJQK52kV-24" value="" style="endArrow=classic;html=1;rounded=0;exitX=0.5;exitY=0;exitDx=0;exitDy=0;entryX=0.632;entryY=0.971;entryDx=0;entryDy=0;entryPerimeter=0;" edge="1" parent="1" source="4hZsw9sIfmTog-wG2VWx-3" target="XBZ-wuPjCvW4bJQK52kV-23">
          <mxGeometry relative="1" as="geometry">
            <mxPoint x="-200" y="-30" as="sourcePoint" />
            <mxPoint x="-100" y="-30" as="targetPoint" />
          </mxGeometry>
        </mxCell>
        <mxCell id="XBZ-wuPjCvW4bJQK52kV-25" value="Publish event" style="edgeLabel;resizable=0;html=1;;align=center;verticalAlign=middle;" connectable="0" vertex="1" parent="XBZ-wuPjCvW4bJQK52kV-24">
          <mxGeometry relative="1" as="geometry" />
        </mxCell>
        <mxCell id="XBZ-wuPjCvW4bJQK52kV-26" value="" style="endArrow=classic;html=1;rounded=0;" edge="1" parent="1" source="XBZ-wuPjCvW4bJQK52kV-23" target="4hZsw9sIfmTog-wG2VWx-5">
          <mxGeometry relative="1" as="geometry">
            <mxPoint x="-200" y="-30" as="sourcePoint" />
            <mxPoint x="-100" y="-30" as="targetPoint" />
          </mxGeometry>
        </mxCell>
        <mxCell id="XBZ-wuPjCvW4bJQK52kV-27" value="Consume event" style="edgeLabel;resizable=0;html=1;;align=center;verticalAlign=middle;" connectable="0" vertex="1" parent="XBZ-wuPjCvW4bJQK52kV-26">
          <mxGeometry relative="1" as="geometry" />
        </mxCell>
      </root>
    </mxGraphModel>
  </diagram>
</mxfile>
